<?xml version="1.0" encoding="UTF-8"?>
<svg id="Layer_2" data-name="Layer 2" xmlns="http://www.w3.org/2000/svg" xmlns:xlink="http://www.w3.org/1999/xlink" viewBox="0 0 482.9 243.96">
  <defs>
    <style>
      .cls-1 {
        clip-path: url(#clippath-2);
      }

      .cls-2 {
        fill: none;
      }

      .cls-2, .cls-3 {
        stroke-width: 0px;
      }

      .cls-4 {
        clip-path: url(#clippath-1);
      }

      .cls-5 {
        clip-path: url(#clippath);
      }

      .cls-3 {
        fill: #fff;
      }
    </style>
    <clipPath id="clippath">
      <rect class="cls-2" width="482.9" height="243.96"/>
    </clipPath>
    <clipPath id="clippath-1">
      <rect class="cls-2" x="240.9" y="-134.78" width="483" height="488"/>
    </clipPath>
    <clipPath id="clippath-2">
      <rect class="cls-2" x="-242.1" y="-134.78" width="483" height="488"/>
    </clipPath>
  </defs>
  <g id="Camada_4" data-name="Camada 4">
    <g class="cls-5">
      <g class="cls-4">
        <g>
          <path class="cls-3" d="M241.07,279.71c1.86-.74,2.83-1.69,4.32-2.64,9.03-4.77,18.73-8.07,27.86-12.58,11.51-5.96,21.6-14.8,28.54-25.8,4.48-7.09,7.42-14.98,9.44-23.12,2.43-9.62,3.73-20.85,5.09-30.8,1.13-9.45,1.71-19.17,2.45-28.67,0,0,.12-1.31.12-1.31.06-.45.07-.91.23-1.34.02-.04.05-.08.08-.11l.26.44c-3.06,1.36-6.08,2.83-9.06,4.36-11.08,5.77-22.09,12.1-31.34,20.57-5.48,5.09-10.25,11-14.6,17.08-5.64,8-10.89,16.68-14.76,25.55-1.88,4.5-3.09,8.87-3.53,13.62-1.46,13.18-2.42,30.7-4.77,43.69,0,0-.12.63-.12.63-.02.1-.03.24-.07.25-.03.04-.09.09-.14.18h0ZM240.73,280.1c-.08-.17-.18-.61-.19-.83-.23-1.47-.44-2.95-.59-4.42-1.33-11.79-1.39-23.65-.79-35.49.24-3.42.48-6.8,1.22-10.41,2.43-10.4,8.12-19.42,14.57-27.68,3.7-4.66,7.79-9.04,11.93-13.31,3.58-3.58,7.14-7.27,11.03-10.54,12.22-10.41,26.34-18.55,41.38-24.11,0,0,.26.44.26.44.02,0,.03-.02.04-.04,0-.01,0,0,0,0-.02.06-.03.12-.05.19,0,0-.05.31-.05.31-.96,10.21-.8,20.48-1.19,30.73-.55,10.46-.59,21.18-1.84,31.59-.88,7.15-2.37,14.39-5.02,21.14,0,0-1.04,2.58-1.04,2.58-.39.83-1.4,2.98-1.78,3.78-.42.8-1.58,2.86-2.02,3.68-.99,1.57-1.99,3.14-3.04,4.67-.99,1.29-2.34,3.23-3.42,4.43-.63.68-2.14,2.51-2.78,3.17-2.25,2.28-4.74,4.67-7.24,6.66-2.15,1.65-4.58,3.45-6.88,4.85-1.39.93-3.39,1.96-4.84,2.81,0,0-2.5,1.23-2.5,1.23-7.42,3.74-15.59,5.98-23.91,6.01-1.94.04-3.91-.14-5.86-.33-1.71-.06-3.97-.62-5.38-1.12h0Z"/>
          <path class="cls-3" d="M272.38,292.43c-2.03,0-3.99-.14-5.87-.42-12.44-1.85-25.51-11.09-26.06-11.48-.35-.25-.43-.73-.18-1.08.25-.35.73-.43,1.08-.18.13.09,13.32,9.41,25.39,11.21,10.29,1.53,23.54-1.46,39.39-8.91,11.26-5.28,36.5-20.2,42.45-23.74-1.1-.55-2.39-1.31-3.91-2.19-7.51-4.37-20.07-11.68-39.64-13.51-.43-.04-.74-.42-.7-.84s.41-.74.84-.7c19.91,1.86,32.66,9.28,40.27,13.71,2.16,1.26,3.87,2.25,5.08,2.71l1.49.57-1.37.82c-.31.18-31.05,18.56-43.86,24.57-13.5,6.34-24.83,9.46-34.41,9.46Z"/>
          <path class="cls-3" d="M322.18,244.5c6.3-5.09,9.98-12.45,13.11-19.76,3.2-7.31,5.5-15.19,6.28-23.14,0,0,1.93,1.36,1.93,1.36-4.48,2.67-8.86,5.07-14.03,6.37-1.1.29-2.74.43-3.91.56-3.2.48-6.52,1.12-9.25,2.87.14,0-3.26-4.27-3.24-4.29,1.32-.9,2.72-1.4,4.19-1.87,2.6-.78,5.24-1.1,7.91-1.24,1.01-.02,2.48-.03,3.49-.19,5.44-.95,10.99-3.35,16.06-5.65-1.02,4.85-2.37,9.62-3.75,14.35-2.22,7.85-4.93,15.74-9.76,22.42-2.4,3.33-5.28,6.42-8.82,8.52l-.22-.32h0Z"/>
          <path class="cls-3" d="M241.07,280.1c-1.42.49-3.67,1.06-5.38,1.12-1.94.2-3.91.37-5.86.33-8.32-.03-16.49-2.27-23.91-6.01,0,0-2.5-1.23-2.5-1.23-1.47-.84-3.45-1.9-4.84-2.81-2.3-1.4-4.74-3.19-6.88-4.85-1.44-1.19-2.88-2.41-4.25-3.69-.71-.67-2.32-2.32-2.99-2.97-.61-.66-2.16-2.46-2.78-3.17-1.06-1.2-2.43-3.14-3.42-4.43-1.05-1.53-2.05-3.1-3.04-4.67-.46-.82-1.58-2.88-2.02-3.68-.38-.79-1.4-2.96-1.78-3.78,0,0-1.04-2.58-1.04-2.58-2.64-6.75-4.13-14-5.02-21.14-1.25-10.41-1.29-21.14-1.84-31.59-.39-10.25-.23-20.52-1.19-30.73,0,0-.05-.31-.05-.31-.01-.07-.03-.14-.05-.19,0,0,0-.02,0,0,0,.02.02.03.04.04,0,0,.26-.44.26-.44,15.04,5.56,29.16,13.7,41.38,24.11,3.88,3.27,7.45,6.96,11.03,10.54,4.14,4.27,8.23,8.65,11.93,13.31,6.45,8.26,12.14,17.29,14.57,27.68.73,3.61.98,7,1.22,10.41.6,11.84.54,23.7-.79,35.49-.16,1.47-.36,2.96-.59,4.42,0,0-.06.38-.06.38-.03.17-.09.33-.14.45h0ZM240.73,279.71c-.05-.09-.11-.14-.14-.18-.03-.01-.04-.15-.07-.25l-.12-.63c-2.34-12.95-3.3-30.53-4.77-43.69-.44-4.75-1.65-9.12-3.53-13.62-3.87-8.86-9.12-17.54-14.76-25.55-4.35-6.08-9.12-11.99-14.6-17.08-9.25-8.47-20.26-14.8-31.34-20.57-2.98-1.53-6-3-9.06-4.36,0,0,.26-.44.26-.44.03.03.06.07.08.11.23.69.26,1.91.35,2.65.74,9.51,1.32,19.22,2.45,28.67,1.38,9.98,2.66,21.16,5.09,30.8,2.02,8.14,4.96,16.03,9.44,23.12,6.93,10.99,17.03,19.84,28.54,25.8,9.13,4.51,18.83,7.81,27.86,12.58,1.48.94,2.47,1.9,4.32,2.64h0Z"/>
          <path class="cls-3" d="M267.35,188.92c-6.72-20.32-23.01-45.96-26.45-51.26-3.44,5.3-19.72,30.94-26.45,51.26l-1.47-.49c7.56-22.87,27.07-52.32,27.27-52.62l.23-.35h.83l.23.35c.2.29,19.71,29.75,27.27,52.62l-1.47.49Z"/>
          <path class="cls-3" d="M209.42,292.43c-9.58,0-20.91-3.12-34.41-9.46-12.81-6.02-43.56-24.39-43.86-24.57l-1.37-.82,1.49-.57c1.21-.46,2.92-1.46,5.08-2.71,7.62-4.43,20.36-11.85,40.27-13.71.42-.04.8.27.84.7.04.43-.27.8-.7.84-19.57,1.83-32.13,9.14-39.64,13.51-1.52.88-2.82,1.64-3.91,2.19,5.96,3.54,31.2,18.46,42.45,23.74,15.85,7.44,29.11,10.44,39.39,8.91,12.07-1.8,25.26-11.12,25.39-11.21.35-.25.83-.17,1.08.18.25.35.17.83-.18,1.08-.55.39-13.62,9.63-26.06,11.48-1.88.28-3.84.42-5.87.42Z"/>
        </g>
        <g>
          <path class="cls-3" d="M482.57,157.71c1.86-.74,2.83-1.69,4.32-2.64,9.03-4.77,18.73-8.07,27.86-12.58,11.51-5.96,21.6-14.8,28.54-25.8,4.48-7.09,7.42-14.98,9.44-23.12,2.43-9.62,3.73-20.85,5.09-30.8,1.13-9.45,1.71-19.17,2.45-28.67,0,0,.12-1.31.12-1.31.06-.45.07-.91.23-1.34.02-.04.05-.08.08-.11l.26.44c-3.06,1.36-6.08,2.83-9.06,4.36-11.08,5.77-22.09,12.1-31.34,20.57-5.48,5.09-10.25,11-14.6,17.08-5.64,8-10.89,16.68-14.76,25.55-1.88,4.5-3.09,8.87-3.53,13.62-1.46,13.18-2.42,30.7-4.77,43.69,0,0-.12.63-.12.63-.02.1-.03.24-.07.25-.03.04-.09.09-.14.18h0ZM482.23,158.1c-.08-.17-.18-.61-.19-.83-.23-1.47-.44-2.95-.59-4.42-1.33-11.79-1.39-23.65-.79-35.49.24-3.42.48-6.8,1.22-10.41,2.43-10.4,8.12-19.42,14.57-27.68,3.7-4.66,7.79-9.04,11.93-13.31,3.58-3.58,7.14-7.27,11.03-10.54,12.22-10.41,26.34-18.55,41.38-24.11,0,0,.26.44.26.44.02,0,.03-.02.04-.04,0-.01,0,0,0,0-.02.06-.03.12-.05.19,0,0-.05.31-.05.31-.96,10.21-.8,20.48-1.19,30.73-.55,10.46-.59,21.18-1.84,31.59-.88,7.15-2.37,14.39-5.02,21.14,0,0-1.04,2.58-1.04,2.58-.39.83-1.4,2.98-1.78,3.78-.42.8-1.58,2.86-2.02,3.68-.99,1.57-1.99,3.14-3.04,4.67-.99,1.29-2.34,3.23-3.42,4.43-.63.68-2.14,2.51-2.78,3.17-2.25,2.28-4.74,4.67-7.24,6.66-2.15,1.65-4.58,3.45-6.88,4.85-1.39.93-3.39,1.96-4.84,2.81,0,0-2.5,1.23-2.5,1.23-7.42,3.74-15.59,5.98-23.91,6.01-1.94.04-3.91-.14-5.86-.33-1.71-.06-3.97-.62-5.38-1.12h0Z"/>
          <path class="cls-3" d="M513.88,170.43c-2.03,0-3.99-.14-5.87-.42-12.44-1.85-25.51-11.09-26.06-11.48-.35-.25-.43-.73-.18-1.08.25-.35.73-.43,1.08-.18.13.09,13.32,9.41,25.39,11.21,10.29,1.53,23.54-1.46,39.39-8.91,11.26-5.28,36.5-20.2,42.45-23.74-1.1-.55-2.39-1.31-3.91-2.19-7.51-4.37-20.07-11.68-39.64-13.51-.43-.04-.74-.42-.7-.84s.41-.74.84-.7c19.91,1.86,32.66,9.28,40.27,13.71,2.16,1.26,3.87,2.25,5.08,2.71l1.49.57-1.37.82c-.31.18-31.05,18.56-43.86,24.57-13.5,6.34-24.83,9.46-34.41,9.46Z"/>
          <path class="cls-3" d="M482.2,204.75c1.8-4.22,3.89-8.36,6.45-12.22,1.56-2.32,3.5-4.37,5.24-6.48,2.32-2.76,4.41-5.62,6.29-8.42,1.85-2.82,3.27-5.74,3.17-8.68l3.25-.67c.98,3.07.22,6.42-1.11,9.24-3.22,6.89-9.67,11.29-14.72,16.66-2.98,3.38-5.6,7.04-8.17,10.79,0,0-.41-.22-.41-.22h0Z"/>
          <path class="cls-3" d="M482.57,158.1c-1.42.49-3.67,1.06-5.38,1.12-1.94.2-3.91.37-5.86.33-8.32-.03-16.49-2.27-23.91-6.01,0,0-2.5-1.23-2.5-1.23-1.47-.84-3.45-1.9-4.84-2.81-2.3-1.4-4.74-3.19-6.88-4.85-1.44-1.19-2.88-2.41-4.25-3.69-.71-.67-2.32-2.32-2.99-2.97-.61-.66-2.16-2.46-2.78-3.17-1.06-1.2-2.43-3.14-3.42-4.43-1.05-1.53-2.05-3.1-3.04-4.67-.46-.82-1.58-2.88-2.02-3.68-.38-.79-1.4-2.96-1.78-3.78,0,0-1.04-2.58-1.04-2.58-2.64-6.75-4.13-14-5.02-21.14-1.25-10.41-1.29-21.14-1.84-31.59-.39-10.25-.23-20.52-1.19-30.73,0,0-.05-.31-.05-.31-.01-.07-.03-.14-.05-.19,0,0,0-.02,0,0,0,.02.02.03.04.04,0,0,.26-.44.26-.44,15.04,5.56,29.16,13.7,41.38,24.11,3.88,3.27,7.45,6.96,11.03,10.54,4.14,4.27,8.23,8.65,11.93,13.31,6.45,8.26,12.14,17.29,14.57,27.68.73,3.61.98,7,1.22,10.41.6,11.84.54,23.7-.79,35.49-.16,1.47-.36,2.96-.59,4.42,0,0-.06.38-.06.38-.03.17-.09.33-.14.45h0ZM482.23,157.71c-.05-.09-.11-.14-.14-.18-.03-.01-.04-.15-.07-.25l-.12-.63c-2.34-12.95-3.3-30.53-4.77-43.69-.44-4.75-1.65-9.12-3.53-13.62-3.87-8.86-9.12-17.54-14.76-25.55-4.35-6.08-9.12-11.99-14.6-17.08-9.25-8.47-20.26-14.8-31.34-20.57-2.98-1.53-6-3-9.06-4.36,0,0,.26-.44.26-.44.03.03.06.07.08.11.23.69.26,1.91.35,2.65.74,9.51,1.32,19.22,2.45,28.67,1.38,9.98,2.66,21.16,5.09,30.8,2.02,8.14,4.96,16.03,9.44,23.12,6.93,10.99,17.03,19.84,28.54,25.8,9.13,4.51,18.83,7.81,27.86,12.58,1.48.94,2.47,1.9,4.32,2.64h0Z"/>
          <path class="cls-3" d="M508.85,66.92c-6.72-20.32-23.01-45.96-26.45-51.26-3.44,5.3-19.72,30.94-26.45,51.26l-1.47-.49c7.56-22.87,27.07-52.32,27.27-52.62l.23-.35h.83l.23.35c.2.29,19.71,29.75,27.27,52.62l-1.47.49Z"/>
          <path class="cls-3" d="M450.92,170.43c-9.58,0-20.91-3.12-34.41-9.46-12.81-6.02-43.56-24.39-43.86-24.57l-1.37-.82,1.49-.57c1.21-.46,2.92-1.46,5.08-2.71,7.62-4.43,20.36-11.85,40.27-13.71.42-.04.8.27.84.7.04.43-.27.8-.7.84-19.57,1.83-32.13,9.14-39.64,13.51-1.52.88-2.82,1.64-3.91,2.19,5.96,3.54,31.2,18.46,42.45,23.74,15.85,7.44,29.11,10.44,39.39,8.91,12.07-1.8,25.26-11.12,25.39-11.21.35-.25.83-.17,1.08.18.25.35.17.83-.18,1.08-.55.39-13.62,9.63-26.06,11.48-1.88.28-3.84.42-5.87.42Z"/>
          <path class="cls-3" d="M400.91,122.82c-3.54-2.1-6.42-5.19-8.82-8.52-4.83-6.68-7.54-14.57-9.76-22.42-1.39-4.72-2.73-9.5-3.75-14.35,5.07,2.3,10.62,4.7,16.06,5.65,1,.16,2.49.17,3.49.19,2.67.14,5.31.46,7.91,1.24,1.47.46,2.87.96,4.19,1.87,0,0-3.28,4.27-3.28,4.27l.04.03c-3.24-2.05-7.27-2.65-11.05-3.07-3.36-.39-6.55-1.72-9.45-3.08-2.31-1.09-4.5-2.32-6.68-3.65l1.93-1.36c1.25,11.92,5.63,23.53,11.65,33.84,2.09,3.39,4.6,6.55,7.75,9.06l-.22.32h0Z"/>
          <path class="cls-3" d="M482.2,204.97c-3.1-4.44-6.11-8.9-10-12.65-4.66-4.53-10.04-8.74-12.88-14.8-1.32-2.82-2.09-6.17-1.11-9.24,0,0,3.25.67,3.25.67-.1,2.94,1.32,5.86,3.17,8.68,2.81,4.32,6.38,8.57,9.83,12.61,3.45,4.35,5.95,9.46,8.15,14.51,0,0-.41.22-.41.22h0Z"/>
          <path class="cls-3" d="M485.43,157.9c-.29,6.78-.91,16.6-1.32,23.48,0,0-1.45,23.48-1.45,23.48h-.52c-.48-7.81-1.71-27.67-2.16-35.22-.21-3.91-.45-7.83-.61-11.74h6.06Z"/>
        </g>
        <g>
          <path class="cls-3" d="M241.07,35.71c1.86-.74,2.83-1.69,4.32-2.64,9.03-4.77,18.73-8.07,27.86-12.58,11.51-5.96,21.6-14.8,28.54-25.8,4.48-7.09,7.42-14.98,9.44-23.12,2.43-9.62,3.73-20.85,5.09-30.8,1.13-9.45,1.71-19.17,2.45-28.67,0,0,.12-1.31.12-1.31.06-.45.07-.91.23-1.34.02-.04.05-.08.08-.11l.26.44c-3.06,1.36-6.08,2.83-9.06,4.36-11.08,5.77-22.09,12.1-31.34,20.57-5.48,5.09-10.25,11-14.6,17.08-5.64,8-10.89,16.68-14.76,25.55-1.88,4.5-3.09,8.87-3.53,13.62-1.46,13.18-2.42,30.7-4.77,43.69,0,0-.12.63-.12.63-.02.1-.03.24-.07.25-.03.04-.09.09-.14.18h0ZM240.73,36.1c-.08-.17-.18-.61-.19-.83-.23-1.47-.44-2.95-.59-4.42-1.33-11.79-1.39-23.65-.79-35.49.24-3.42.48-6.8,1.22-10.41,2.43-10.4,8.12-19.42,14.57-27.68,3.7-4.66,7.79-9.04,11.93-13.31,3.58-3.58,7.14-7.27,11.03-10.54,12.22-10.41,26.34-18.55,41.38-24.11,0,0,.26.44.26.44.02,0,.03-.02.04-.04,0-.01,0,0,0,0-.02.06-.03.12-.05.19,0,0-.05.31-.05.31-.96,10.21-.8,20.48-1.19,30.73-.55,10.46-.59,21.18-1.84,31.59-.88,7.15-2.37,14.39-5.02,21.14,0,0-1.04,2.58-1.04,2.58-.39.83-1.4,2.98-1.78,3.78-.42.8-1.58,2.86-2.02,3.68-.99,1.57-1.99,3.14-3.04,4.67-.99,1.29-2.34,3.23-3.42,4.43-.63.68-2.14,2.51-2.78,3.17-2.25,2.28-4.74,4.67-7.24,6.66-2.15,1.65-4.58,3.45-6.88,4.85-1.39.93-3.39,1.96-4.84,2.81,0,0-2.5,1.23-2.5,1.23-7.42,3.74-15.59,5.98-23.91,6.01-1.94.04-3.91-.14-5.86-.33-1.71-.06-3.97-.62-5.38-1.12h0Z"/>
          <path class="cls-3" d="M272.38,48.43c-2.03,0-3.99-.14-5.87-.42-12.44-1.85-25.51-11.09-26.06-11.48-.35-.25-.43-.73-.18-1.08.25-.35.73-.43,1.08-.18.13.09,13.32,9.41,25.39,11.21,10.29,1.53,23.54-1.46,39.39-8.91,11.26-5.28,36.5-20.2,42.45-23.74-1.1-.55-2.39-1.31-3.91-2.19-7.51-4.37-20.07-11.68-39.64-13.51-.43-.04-.74-.42-.7-.84s.41-.74.84-.7c19.91,1.86,32.66,9.28,40.27,13.71,2.16,1.26,3.87,2.25,5.08,2.71l1.49.57-1.37.82c-.31.18-31.05,18.56-43.86,24.57-13.5,6.34-24.83,9.46-34.41,9.46Z"/>
          <path class="cls-3" d="M322.18.5c6.3-5.09,9.98-12.45,13.11-19.76,3.2-7.31,5.5-15.19,6.28-23.14,0,0,1.93,1.36,1.93,1.36-4.48,2.67-8.86,5.07-14.03,6.37-1.1.29-2.74.43-3.91.56-3.2.48-6.52,1.12-9.25,2.87.14,0-3.26-4.27-3.24-4.29,1.32-.9,2.72-1.4,4.19-1.87,2.6-.78,5.24-1.1,7.91-1.24,1.01-.02,2.48-.03,3.49-.19,5.44-.95,10.99-3.35,16.06-5.65-1.02,4.85-2.37,9.62-3.75,14.35-2.22,7.85-4.93,15.74-9.76,22.42-2.4,3.33-5.28,6.42-8.82,8.52l-.22-.32h0Z"/>
          <path class="cls-3" d="M240.7,82.75c1.8-4.22,3.89-8.36,6.45-12.22,1.56-2.32,3.5-4.37,5.24-6.48,2.32-2.76,4.41-5.62,6.29-8.42,1.85-2.82,3.27-5.74,3.17-8.68l3.25-.67c.98,3.07.22,6.42-1.11,9.24-3.22,6.89-9.67,11.29-14.72,16.66-2.98,3.38-5.6,7.04-8.17,10.79,0,0-.41-.22-.41-.22h0Z"/>
          <path class="cls-3" d="M241.07,36.1c-1.42.49-3.67,1.06-5.38,1.12-1.94.2-3.91.37-5.86.33-8.32-.03-16.49-2.27-23.91-6.01,0,0-2.5-1.23-2.5-1.23-1.47-.84-3.45-1.9-4.84-2.81-2.3-1.4-4.74-3.19-6.88-4.85-1.44-1.19-2.88-2.41-4.25-3.69-.71-.67-2.32-2.32-2.99-2.97-.61-.66-2.16-2.46-2.78-3.17-1.06-1.2-2.43-3.14-3.42-4.43-1.05-1.53-2.05-3.1-3.04-4.67-.46-.82-1.58-2.88-2.02-3.68-.38-.79-1.4-2.96-1.78-3.78,0,0-1.04-2.58-1.04-2.58-2.64-6.75-4.13-14-5.02-21.14-1.25-10.41-1.29-21.14-1.84-31.59-.39-10.25-.23-20.52-1.19-30.73,0,0-.05-.31-.05-.31-.01-.07-.03-.14-.05-.19,0,0,0-.02,0,0,0,.02.02.03.04.04,0,0,.26-.44.26-.44,15.04,5.56,29.16,13.7,41.38,24.11,3.88,3.27,7.45,6.96,11.03,10.54,4.14,4.27,8.23,8.65,11.93,13.31,6.45,8.26,12.14,17.29,14.57,27.68.73,3.61.98,7,1.22,10.41.6,11.84.54,23.7-.79,35.49-.16,1.47-.36,2.96-.59,4.42,0,0-.06.38-.06.38-.03.17-.09.33-.14.45h0ZM240.73,35.71c-.05-.09-.11-.14-.14-.18-.03-.01-.04-.15-.07-.25l-.12-.63c-2.34-12.95-3.3-30.53-4.77-43.69-.44-4.75-1.65-9.12-3.53-13.62-3.87-8.86-9.12-17.54-14.76-25.55-4.35-6.08-9.12-11.99-14.6-17.08-9.25-8.47-20.26-14.8-31.34-20.57-2.98-1.53-6-3-9.06-4.36,0,0,.26-.44.26-.44.03.03.06.07.08.11.23.69.26,1.91.35,2.65.74,9.51,1.32,19.22,2.45,28.67,1.38,9.98,2.66,21.16,5.09,30.8,2.02,8.14,4.96,16.03,9.44,23.12,6.93,10.99,17.03,19.84,28.54,25.8,9.13,4.51,18.83,7.81,27.86,12.58,1.48.94,2.47,1.9,4.32,2.64h0Z"/>
          <path class="cls-3" d="M209.42,48.43c-9.58,0-20.91-3.12-34.41-9.46-12.81-6.02-43.56-24.39-43.86-24.57l-1.37-.82,1.49-.57c1.21-.46,2.92-1.46,5.08-2.71,7.62-4.43,20.36-11.85,40.27-13.71.42-.04.8.27.84.7.04.43-.27.8-.7.84-19.57,1.83-32.13,9.14-39.64,13.51-1.52.88-2.82,1.64-3.91,2.19,5.96,3.54,31.2,18.46,42.45,23.74,15.85,7.44,29.11,10.44,39.39,8.91,12.07-1.8,25.26-11.12,25.39-11.21.35-.25.83-.17,1.08.18.25.35.17.83-.18,1.08-.55.39-13.62,9.63-26.06,11.48-1.88.28-3.84.42-5.87.42Z"/>
          <path class="cls-3" d="M240.7,82.97c-3.1-4.44-6.11-8.9-10-12.65-4.66-4.53-10.04-8.74-12.88-14.8-1.32-2.82-2.09-6.17-1.11-9.24,0,0,3.25.67,3.25.67-.1,2.94,1.32,5.86,3.17,8.68,2.81,4.32,6.38,8.57,9.83,12.61,3.45,4.35,5.95,9.46,8.15,14.51,0,0-.41.22-.41.22h0Z"/>
          <path class="cls-3" d="M243.93,35.9c-.29,6.78-.91,16.6-1.32,23.48,0,0-1.45,23.48-1.45,23.48h-.52c-.48-7.81-1.71-27.67-2.16-35.22-.21-3.91-.45-7.83-.61-11.74h6.06Z"/>
        </g>
      </g>
      <g class="cls-1">
        <g>
          <path class="cls-3" d="M241.07,279.71c1.86-.74,2.83-1.69,4.32-2.64,9.03-4.77,18.73-8.07,27.86-12.58,11.51-5.96,21.6-14.8,28.54-25.8,4.48-7.09,7.42-14.98,9.44-23.12,2.43-9.62,3.73-20.85,5.09-30.8,1.13-9.45,1.71-19.17,2.45-28.67,0,0,.12-1.31.12-1.31.06-.45.07-.91.23-1.34.02-.04.05-.08.08-.11l.26.44c-3.06,1.36-6.08,2.83-9.06,4.36-11.08,5.77-22.09,12.1-31.34,20.57-5.48,5.09-10.25,11-14.6,17.08-5.64,8-10.89,16.68-14.76,25.55-1.88,4.5-3.09,8.87-3.53,13.62-1.46,13.18-2.42,30.7-4.77,43.69,0,0-.12.63-.12.63-.02.1-.03.24-.07.25-.03.04-.09.09-.14.18h0ZM240.73,280.1c-.08-.17-.18-.61-.19-.83-.23-1.47-.44-2.95-.59-4.42-1.33-11.79-1.39-23.65-.79-35.49.24-3.42.48-6.8,1.22-10.41,2.43-10.4,8.12-19.42,14.57-27.68,3.7-4.66,7.79-9.04,11.93-13.31,3.58-3.58,7.14-7.27,11.03-10.54,12.22-10.41,26.34-18.55,41.38-24.11,0,0,.26.44.26.44.02,0,.03-.02.04-.04,0-.01,0,0,0,0-.02.06-.03.12-.05.19,0,0-.05.31-.05.31-.96,10.21-.8,20.48-1.19,30.73-.55,10.46-.59,21.18-1.84,31.59-.88,7.15-2.37,14.39-5.02,21.14,0,0-1.04,2.58-1.04,2.58-.39.83-1.4,2.98-1.78,3.78-.42.8-1.58,2.86-2.02,3.68-.99,1.57-1.99,3.14-3.04,4.67-.99,1.29-2.34,3.23-3.42,4.43-.63.68-2.14,2.51-2.78,3.17-2.25,2.28-4.74,4.67-7.24,6.66-2.15,1.65-4.58,3.45-6.88,4.85-1.39.93-3.39,1.96-4.84,2.81,0,0-2.5,1.23-2.5,1.23-7.42,3.74-15.59,5.98-23.91,6.01-1.94.04-3.91-.14-5.86-.33-1.71-.06-3.97-.62-5.38-1.12h0Z"/>
          <path class="cls-3" d="M272.38,292.43c-2.03,0-3.99-.14-5.87-.42-12.44-1.85-25.51-11.09-26.06-11.48-.35-.25-.43-.73-.18-1.08.25-.35.73-.43,1.08-.18.13.09,13.32,9.41,25.39,11.21,10.29,1.53,23.54-1.46,39.39-8.91,11.26-5.28,36.5-20.2,42.45-23.74-1.1-.55-2.39-1.31-3.91-2.19-7.51-4.37-20.07-11.68-39.64-13.51-.43-.04-.74-.42-.7-.84s.41-.74.84-.7c19.91,1.86,32.66,9.28,40.27,13.71,2.16,1.26,3.87,2.25,5.08,2.71l1.49.57-1.37.82c-.31.18-31.05,18.56-43.86,24.57-13.5,6.34-24.83,9.46-34.41,9.46Z"/>
          <path class="cls-3" d="M241.07,280.1c-1.42.49-3.67,1.06-5.38,1.12-1.94.2-3.91.37-5.86.33-8.32-.03-16.49-2.27-23.91-6.01,0,0-2.5-1.23-2.5-1.23-1.47-.84-3.45-1.9-4.84-2.81-2.3-1.4-4.74-3.19-6.88-4.85-1.44-1.19-2.88-2.41-4.25-3.69-.71-.67-2.32-2.32-2.99-2.97-.61-.66-2.16-2.46-2.78-3.17-1.06-1.2-2.43-3.14-3.42-4.43-1.05-1.53-2.05-3.1-3.04-4.67-.46-.82-1.58-2.88-2.02-3.68-.38-.79-1.4-2.96-1.78-3.78,0,0-1.04-2.58-1.04-2.58-2.64-6.75-4.13-14-5.02-21.14-1.25-10.41-1.29-21.14-1.84-31.59-.39-10.25-.23-20.52-1.19-30.73,0,0-.05-.31-.05-.31-.01-.07-.03-.14-.05-.19,0,0,0-.02,0,0,0,.02.02.03.04.04,0,0,.26-.44.26-.44,15.04,5.56,29.16,13.7,41.38,24.11,3.88,3.27,7.45,6.96,11.03,10.54,4.14,4.27,8.23,8.65,11.93,13.31,6.45,8.26,12.14,17.29,14.57,27.68.73,3.61.98,7,1.22,10.41.6,11.84.54,23.7-.79,35.49-.16,1.47-.36,2.96-.59,4.42,0,0-.06.38-.06.38-.03.17-.09.33-.14.45h0ZM240.73,279.71c-.05-.09-.11-.14-.14-.18-.03-.01-.04-.15-.07-.25l-.12-.63c-2.34-12.95-3.3-30.53-4.77-43.69-.44-4.75-1.65-9.12-3.53-13.62-3.87-8.86-9.12-17.54-14.76-25.55-4.35-6.08-9.12-11.99-14.6-17.08-9.25-8.47-20.26-14.8-31.34-20.57-2.98-1.53-6-3-9.06-4.36,0,0,.26-.44.26-.44.03.03.06.07.08.11.23.69.26,1.91.35,2.65.74,9.51,1.32,19.22,2.45,28.67,1.38,9.98,2.66,21.16,5.09,30.8,2.02,8.14,4.96,16.03,9.44,23.12,6.93,10.99,17.03,19.84,28.54,25.8,9.13,4.51,18.83,7.81,27.86,12.58,1.48.94,2.47,1.9,4.32,2.64h0Z"/>
          <path class="cls-3" d="M267.35,188.92c-6.72-20.32-23.01-45.96-26.45-51.26-3.44,5.3-19.72,30.94-26.45,51.26l-1.47-.49c7.56-22.87,27.07-52.32,27.27-52.62l.23-.35h.83l.23.35c.2.29,19.71,29.75,27.27,52.62l-1.47.49Z"/>
          <path class="cls-3" d="M209.42,292.43c-9.58,0-20.91-3.12-34.41-9.46-12.81-6.02-43.56-24.39-43.86-24.57l-1.37-.82,1.49-.57c1.21-.46,2.92-1.46,5.08-2.71,7.62-4.43,20.36-11.85,40.27-13.71.42-.04.8.27.84.7.04.43-.27.8-.7.84-19.57,1.83-32.13,9.14-39.64,13.51-1.52.88-2.82,1.64-3.91,2.19,5.96,3.54,31.2,18.46,42.45,23.74,15.85,7.44,29.11,10.44,39.39,8.91,12.07-1.8,25.26-11.12,25.39-11.21.35-.25.83-.17,1.08.18.25.35.17.83-.18,1.08-.55.39-13.62,9.63-26.06,11.48-1.88.28-3.84.42-5.87.42Z"/>
          <path class="cls-3" d="M159.41,244.82c-3.54-2.1-6.42-5.19-8.82-8.52-4.83-6.68-7.54-14.57-9.76-22.42-1.39-4.72-2.73-9.5-3.75-14.35,5.07,2.3,10.62,4.7,16.06,5.65,1,.16,2.49.17,3.49.19,2.67.14,5.31.46,7.91,1.24,1.47.46,2.87.96,4.19,1.87,0,0-3.28,4.27-3.28,4.27l.04.03c-3.24-2.05-7.27-2.65-11.05-3.07-3.36-.39-6.55-1.72-9.45-3.08-2.31-1.09-4.5-2.32-6.68-3.65l1.93-1.36c1.25,11.92,5.63,23.53,11.65,33.84,2.09,3.39,4.6,6.55,7.75,9.06l-.22.32h0Z"/>
        </g>
        <g>
          <path class="cls-3" d="M241.07,35.71c1.86-.74,2.83-1.69,4.32-2.64,9.03-4.77,18.73-8.07,27.86-12.58,11.51-5.96,21.6-14.8,28.54-25.8,4.48-7.09,7.42-14.98,9.44-23.12,2.43-9.62,3.73-20.85,5.09-30.8,1.13-9.45,1.71-19.17,2.45-28.67,0,0,.12-1.31.12-1.31.06-.45.07-.91.23-1.34.02-.04.05-.08.08-.11l.26.44c-3.06,1.36-6.08,2.83-9.06,4.36-11.08,5.77-22.09,12.1-31.34,20.57-5.48,5.09-10.25,11-14.6,17.08-5.64,8-10.89,16.68-14.76,25.55-1.88,4.5-3.09,8.87-3.53,13.62-1.46,13.18-2.42,30.7-4.77,43.69,0,0-.12.63-.12.63-.02.1-.03.24-.07.25-.03.04-.09.09-.14.18h0ZM240.73,36.1c-.08-.17-.18-.61-.19-.83-.23-1.47-.44-2.95-.59-4.42-1.33-11.79-1.39-23.65-.79-35.49.24-3.42.48-6.8,1.22-10.41,2.43-10.4,8.12-19.42,14.57-27.68,3.7-4.66,7.79-9.04,11.93-13.31,3.58-3.58,7.14-7.27,11.03-10.54,12.22-10.41,26.34-18.55,41.38-24.11,0,0,.26.44.26.44.02,0,.03-.02.04-.04,0-.01,0,0,0,0-.02.06-.03.12-.05.19,0,0-.05.31-.05.31-.96,10.21-.8,20.48-1.19,30.73-.55,10.46-.59,21.18-1.84,31.59-.88,7.15-2.37,14.39-5.02,21.14,0,0-1.04,2.58-1.04,2.58-.39.83-1.4,2.98-1.78,3.78-.42.8-1.58,2.86-2.02,3.68-.99,1.57-1.99,3.14-3.04,4.67-.99,1.29-2.34,3.23-3.42,4.43-.63.68-2.14,2.51-2.78,3.17-2.25,2.28-4.74,4.67-7.24,6.66-2.15,1.65-4.58,3.45-6.88,4.85-1.39.93-3.39,1.96-4.84,2.81,0,0-2.5,1.23-2.5,1.23-7.42,3.74-15.59,5.98-23.91,6.01-1.94.04-3.91-.14-5.86-.33-1.71-.06-3.97-.62-5.38-1.12h0Z"/>
          <path class="cls-3" d="M272.38,48.43c-2.03,0-3.99-.14-5.87-.42-12.44-1.85-25.51-11.09-26.06-11.48-.35-.25-.43-.73-.18-1.08.25-.35.73-.43,1.08-.18.13.09,13.32,9.41,25.39,11.21,10.29,1.53,23.54-1.46,39.39-8.91,11.26-5.28,36.5-20.2,42.45-23.74-1.1-.55-2.39-1.31-3.91-2.19-7.51-4.37-20.07-11.68-39.64-13.51-.43-.04-.74-.42-.7-.84s.41-.74.84-.7c19.91,1.86,32.66,9.28,40.27,13.71,2.16,1.26,3.87,2.25,5.08,2.71l1.49.57-1.37.82c-.31.18-31.05,18.56-43.86,24.57-13.5,6.34-24.83,9.46-34.41,9.46Z"/>
          <path class="cls-3" d="M240.7,82.75c1.8-4.22,3.89-8.36,6.45-12.22,1.56-2.32,3.5-4.37,5.24-6.48,2.32-2.76,4.41-5.62,6.29-8.42,1.85-2.82,3.27-5.74,3.17-8.68l3.25-.67c.98,3.07.22,6.42-1.11,9.24-3.22,6.89-9.67,11.29-14.72,16.66-2.98,3.38-5.6,7.04-8.17,10.79,0,0-.41-.22-.41-.22h0Z"/>
          <path class="cls-3" d="M241.07,36.1c-1.42.49-3.67,1.06-5.38,1.12-1.94.2-3.91.37-5.86.33-8.32-.03-16.49-2.27-23.91-6.01,0,0-2.5-1.23-2.5-1.23-1.47-.84-3.45-1.9-4.84-2.81-2.3-1.4-4.74-3.19-6.88-4.85-1.44-1.19-2.88-2.41-4.25-3.69-.71-.67-2.32-2.32-2.99-2.97-.61-.66-2.16-2.46-2.78-3.17-1.06-1.2-2.43-3.14-3.42-4.43-1.05-1.53-2.05-3.1-3.04-4.67-.46-.82-1.58-2.88-2.02-3.68-.38-.79-1.4-2.96-1.78-3.78,0,0-1.04-2.58-1.04-2.58-2.64-6.75-4.13-14-5.02-21.14-1.25-10.41-1.29-21.14-1.84-31.59-.39-10.25-.23-20.52-1.19-30.73,0,0-.05-.31-.05-.31-.01-.07-.03-.14-.05-.19,0,0,0-.02,0,0,0,.02.02.03.04.04,0,0,.26-.44.26-.44,15.04,5.56,29.16,13.7,41.38,24.11,3.88,3.27,7.45,6.96,11.03,10.54,4.14,4.27,8.23,8.65,11.93,13.31,6.45,8.26,12.14,17.29,14.57,27.68.73,3.61.98,7,1.22,10.41.6,11.84.54,23.7-.79,35.49-.16,1.47-.36,2.96-.59,4.42,0,0-.06.38-.06.38-.03.17-.09.33-.14.45h0ZM240.73,35.71c-.05-.09-.11-.14-.14-.18-.03-.01-.04-.15-.07-.25l-.12-.63c-2.34-12.95-3.3-30.53-4.77-43.69-.44-4.75-1.65-9.12-3.53-13.62-3.87-8.86-9.12-17.54-14.76-25.55-4.35-6.08-9.12-11.99-14.6-17.08-9.25-8.47-20.26-14.8-31.34-20.57-2.98-1.53-6-3-9.06-4.36,0,0,.26-.44.26-.44.03.03.06.07.08.11.23.69.26,1.91.35,2.65.74,9.51,1.32,19.22,2.45,28.67,1.38,9.98,2.66,21.16,5.09,30.8,2.02,8.14,4.96,16.03,9.44,23.12,6.93,10.99,17.03,19.84,28.54,25.8,9.13,4.51,18.83,7.81,27.86,12.58,1.48.94,2.47,1.9,4.32,2.64h0Z"/>
          <path class="cls-3" d="M209.42,48.43c-9.58,0-20.91-3.12-34.41-9.46-12.81-6.02-43.56-24.39-43.86-24.57l-1.37-.82,1.49-.57c1.21-.46,2.92-1.46,5.08-2.71,7.62-4.43,20.36-11.85,40.27-13.71.42-.04.8.27.84.7.04.43-.27.8-.7.84-19.57,1.83-32.13,9.14-39.64,13.51-1.52.88-2.82,1.64-3.91,2.19,5.96,3.54,31.2,18.46,42.45,23.74,15.85,7.44,29.11,10.44,39.39,8.91,12.07-1.8,25.26-11.12,25.39-11.21.35-.25.83-.17,1.08.18.25.35.17.83-.18,1.08-.55.39-13.62,9.63-26.06,11.48-1.88.28-3.84.42-5.87.42Z"/>
          <path class="cls-3" d="M159.41.82c-3.54-2.1-6.42-5.19-8.82-8.52-4.83-6.68-7.54-14.57-9.76-22.42-1.39-4.72-2.73-9.5-3.75-14.35,5.07,2.3,10.62,4.7,16.06,5.65,1,.16,2.49.17,3.49.19,2.67.14,5.31.46,7.91,1.24,1.47.46,2.87.96,4.19,1.87,0,0-3.28,4.27-3.28,4.27l.04.03c-3.24-2.05-7.27-2.65-11.05-3.07-3.36-.39-6.55-1.72-9.45-3.08-2.31-1.09-4.5-2.32-6.68-3.65l1.93-1.36c1.25,11.92,5.63,23.53,11.65,33.84,2.09,3.39,4.6,6.55,7.75,9.06l-.22.32h0Z"/>
          <path class="cls-3" d="M240.7,82.97c-3.1-4.44-6.11-8.9-10-12.65-4.66-4.53-10.04-8.74-12.88-14.8-1.32-2.82-2.09-6.17-1.11-9.24,0,0,3.25.67,3.25.67-.1,2.94,1.32,5.86,3.17,8.68,2.81,4.32,6.38,8.57,9.83,12.61,3.45,4.35,5.95,9.46,8.15,14.51,0,0-.41.22-.41.22h0Z"/>
          <path class="cls-3" d="M243.93,35.9c-.29,6.78-.91,16.6-1.32,23.48,0,0-1.45,23.48-1.45,23.48h-.52c-.48-7.81-1.71-27.67-2.16-35.22-.21-3.91-.45-7.83-.61-11.74h6.06Z"/>
        </g>
        <g>
          <path class="cls-3" d="M-.43,157.71c1.86-.74,2.83-1.69,4.32-2.64,9.03-4.77,18.73-8.07,27.86-12.58,11.51-5.96,21.6-14.8,28.54-25.8,4.48-7.09,7.42-14.98,9.44-23.12,2.43-9.62,3.73-20.85,5.09-30.8,1.13-9.45,1.71-19.17,2.45-28.67,0,0,.12-1.31.12-1.31.06-.45.07-.91.23-1.34.02-.04.05-.08.08-.11l.26.44c-3.06,1.36-6.08,2.83-9.06,4.36-11.08,5.77-22.09,12.1-31.34,20.57-5.48,5.09-10.25,11-14.6,17.08-5.64,8-10.89,16.68-14.76,25.55-1.88,4.5-3.09,8.87-3.53,13.62-1.46,13.18-2.42,30.7-4.77,43.69,0,0-.12.63-.12.63-.02.1-.03.24-.07.25-.03.04-.09.09-.14.18H-.43ZM-.77,158.1c-.08-.17-.18-.61-.19-.83-.23-1.47-.44-2.95-.59-4.42-1.33-11.79-1.39-23.65-.79-35.49.24-3.42.48-6.8,1.22-10.41,2.43-10.4,8.12-19.42,14.57-27.68,3.7-4.66,7.79-9.04,11.93-13.31,3.58-3.58,7.14-7.27,11.03-10.54,12.22-10.41,26.34-18.55,41.38-24.11,0,0,.26.44.26.44.02,0,.03-.02.04-.04,0-.01,0,0,0,0-.02.06-.03.12-.05.19,0,0-.05.31-.05.31-.96,10.21-.8,20.48-1.19,30.73-.55,10.46-.59,21.18-1.84,31.59-.88,7.15-2.37,14.39-5.02,21.14,0,0-1.04,2.58-1.04,2.58-.39.83-1.4,2.98-1.78,3.78-.42.8-1.58,2.86-2.02,3.68-.99,1.57-1.99,3.14-3.04,4.67-.99,1.29-2.34,3.23-3.42,4.43-.63.68-2.14,2.51-2.78,3.17-2.25,2.28-4.74,4.67-7.24,6.66-2.15,1.65-4.58,3.45-6.88,4.85-1.39.93-3.39,1.96-4.84,2.81,0,0-2.5,1.23-2.5,1.23-7.42,3.74-15.59,5.98-23.91,6.01-1.94.04-3.91-.14-5.86-.33-1.71-.06-3.97-.62-5.38-1.12h0Z"/>
          <path class="cls-3" d="M30.88,170.43c-2.03,0-3.99-.14-5.87-.42-12.44-1.85-25.51-11.09-26.06-11.48-.35-.25-.43-.73-.18-1.08.25-.35.73-.43,1.08-.18.13.09,13.32,9.41,25.39,11.21,10.29,1.53,23.54-1.46,39.39-8.91,11.26-5.28,36.5-20.2,42.45-23.74-1.1-.55-2.39-1.31-3.91-2.19-7.51-4.37-20.07-11.68-39.64-13.51-.43-.04-.74-.42-.7-.84s.41-.74.84-.7c19.91,1.86,32.66,9.28,40.27,13.71,2.16,1.26,3.87,2.25,5.08,2.71l1.49.57-1.37.82c-.31.18-31.05,18.56-43.86,24.57-13.5,6.34-24.83,9.46-34.41,9.46Z"/>
          <path class="cls-3" d="M80.68,122.5c6.3-5.09,9.98-12.45,13.11-19.76,3.2-7.31,5.5-15.19,6.28-23.14,0,0,1.93,1.36,1.93,1.36-4.48,2.67-8.86,5.07-14.03,6.37-1.1.29-2.74.43-3.91.56-3.2.48-6.52,1.12-9.25,2.87.14,0-3.26-4.27-3.24-4.29,1.32-.9,2.72-1.4,4.19-1.87,2.6-.78,5.24-1.1,7.91-1.24,1.01-.02,2.48-.03,3.49-.19,5.44-.95,10.99-3.35,16.06-5.65-1.02,4.85-2.37,9.62-3.75,14.35-2.22,7.85-4.93,15.74-9.76,22.42-2.4,3.33-5.28,6.42-8.82,8.52l-.22-.32h0Z"/>
          <path class="cls-3" d="M-.8,204.75c1.8-4.22,3.89-8.36,6.45-12.22,1.56-2.32,3.5-4.37,5.24-6.48,2.32-2.76,4.41-5.62,6.29-8.42,1.85-2.82,3.27-5.74,3.17-8.68l3.25-.67c.98,3.07.22,6.42-1.11,9.24-3.22,6.89-9.67,11.29-14.72,16.66-2.98,3.38-5.6,7.04-8.17,10.79,0,0-.41-.22-.41-.22h0Z"/>
          <path class="cls-3" d="M-.43,158.1c-1.42.49-3.67,1.06-5.38,1.12-1.94.2-3.91.37-5.86.33-8.32-.03-16.49-2.27-23.91-6.01,0,0-2.5-1.23-2.5-1.23-1.47-.84-3.45-1.9-4.84-2.81-2.3-1.4-4.74-3.19-6.88-4.85-1.44-1.19-2.88-2.41-4.25-3.69-.71-.67-2.32-2.32-2.99-2.97-.61-.66-2.16-2.46-2.78-3.17-1.06-1.2-2.43-3.14-3.42-4.43-1.05-1.53-2.05-3.1-3.04-4.67-.46-.82-1.58-2.88-2.02-3.68-.38-.79-1.4-2.96-1.78-3.78,0,0-1.04-2.58-1.04-2.58-2.64-6.75-4.13-14-5.02-21.14-1.25-10.41-1.29-21.14-1.84-31.59-.39-10.25-.23-20.52-1.19-30.73,0,0-.05-.31-.05-.31-.01-.07-.03-.14-.05-.19,0,0,0-.02,0,0,0,.02.02.03.04.04,0,0,.26-.44.26-.44,15.04,5.56,29.16,13.7,41.38,24.11,3.88,3.27,7.45,6.96,11.03,10.54,4.14,4.27,8.23,8.65,11.93,13.31C-8.18,87.52-2.5,96.55-.06,106.94c.73,3.61.98,7,1.22,10.41.6,11.84.54,23.7-.79,35.49-.16,1.47-.36,2.96-.59,4.42,0,0-.06.38-.06.38-.03.17-.09.33-.14.45H-.43ZM-.77,157.71c-.05-.09-.11-.14-.14-.18-.03-.01-.04-.15-.07-.25l-.12-.63c-2.34-12.95-3.3-30.53-4.77-43.69-.44-4.75-1.65-9.12-3.53-13.62-3.87-8.86-9.12-17.54-14.76-25.55-4.35-6.08-9.12-11.99-14.6-17.08-9.25-8.47-20.26-14.8-31.34-20.57-2.98-1.53-6-3-9.06-4.36,0,0,.26-.44.26-.44.03.03.06.07.08.11.23.69.26,1.91.35,2.65.74,9.51,1.32,19.22,2.45,28.67,1.38,9.98,2.66,21.16,5.09,30.8,2.02,8.14,4.96,16.03,9.44,23.12,6.93,10.99,17.03,19.84,28.54,25.8,9.13,4.51,18.83,7.81,27.86,12.58,1.48.94,2.47,1.9,4.32,2.64h0Z"/>
          <path class="cls-3" d="M25.85,66.92C19.13,46.6,2.84,20.96-.6,15.66c-3.44,5.3-19.72,30.94-26.45,51.26l-1.47-.49C-20.95,43.56-1.44,14.11-1.25,13.82l.23-.35H-.19l.23.35c.2.29,19.71,29.75,27.27,52.62l-1.47.49Z"/>
          <path class="cls-3" d="M-32.08,170.43c-9.58,0-20.91-3.12-34.41-9.46-12.81-6.02-43.56-24.39-43.86-24.57l-1.37-.82,1.49-.57c1.21-.46,2.92-1.46,5.08-2.71,7.62-4.43,20.36-11.85,40.27-13.71.42-.04.8.27.84.7.04.43-.27.8-.7.84-19.57,1.83-32.13,9.14-39.64,13.51-1.52.88-2.82,1.64-3.91,2.19,5.96,3.54,31.2,18.46,42.45,23.74,15.85,7.44,29.11,10.44,39.39,8.91,12.07-1.8,25.26-11.12,25.39-11.21.35-.25.83-.17,1.08.18.25.35.17.83-.18,1.08-.55.39-13.62,9.63-26.06,11.48-1.88.28-3.84.42-5.87.42Z"/>
          <path class="cls-3" d="M2.43,157.9c-.29,6.78-.91,16.6-1.32,23.48,0,0-1.45,23.48-1.45,23.48h-.52c-.48-7.81-1.71-27.67-2.16-35.22-.21-3.91-.45-7.83-.61-11.74H2.43Z"/>
        </g>
      </g>
    </g>
  </g>
</svg>