<?xml version="1.0" encoding="UTF-8"?>
<svg id="Layer_2" data-name="Layer 2" xmlns="http://www.w3.org/2000/svg" viewBox="0 0 1760.54 408.97">
  <defs>
    <style>
      .cls-1 {
        fill: #000;
        stroke-width: 0px;
      }
    </style>
  </defs>
  <g id="Camada_4" data-name="Camada 4">
    <g>
      <g>
        <path class="cls-1" d="M481.83,274.14c-.27,0-.49.22-.49.49s.22.49.49.49.49-.22.49-.49-.22-.49-.49-.49Z"/>
        <path class="cls-1" d="M467.58,281.87c-.67,0-1.21.54-1.21,1.2s.54,1.2,1.21,1.2,1.2-.54,1.2-1.2-.54-1.2-1.2-1.2Z"/>
        <path class="cls-1" d="M453.28,289.59c-1.01,0-1.84.82-1.84,1.84s.82,1.84,1.84,1.84,1.84-.82,1.84-1.84-.82-1.84-1.84-1.84Z"/>
        <path class="cls-1" d="M438.92,297.24c-1.36,0-2.47,1.1-2.47,2.47s1.1,2.47,2.47,2.47,2.47-1.1,2.47-2.47-1.1-2.47-2.47-2.47Z"/>
        <path class="cls-1" d="M424.49,304.91c-1.63,0-2.96,1.33-2.96,2.96s1.33,2.96,2.96,2.96,2.96-1.33,2.96-2.96-1.33-2.96-2.96-2.96Z"/>
        <path class="cls-1" d="M409.97,312.42c-1.91,0-3.45,1.55-3.45,3.45s1.55,3.45,3.45,3.45,3.45-1.55,3.45-3.45-1.55-3.45-3.45-3.45Z"/>
        <path class="cls-1" d="M395.29,319.63c-2.18,0-3.95,1.77-3.95,3.95s1.77,3.95,3.95,3.95,3.95-1.77,3.95-3.95-1.77-3.95-3.95-3.95Z"/>
        <path class="cls-1" d="M380.28,326.06c-2.51,0-4.54,2.03-4.54,4.54s2.03,4.54,4.54,4.54,4.54-2.03,4.54-4.54-2.03-4.54-4.54-4.54Z"/>
        <path class="cls-1" d="M364.88,331.64c-2.81,0-5.09,2.28-5.09,5.09s2.28,5.09,5.09,5.09,5.09-2.28,5.09-5.09-2.28-5.09-5.09-5.09Z"/>
        <circle class="cls-1" cx="349.08" cy="341.76" r="4.93"/>
        <path class="cls-1" d="M332.88,341.16c-2.25,0-4.08,1.83-4.08,4.08s1.83,4.08,4.08,4.08,4.08-1.83,4.08-4.08-1.83-4.08-4.08-4.08Z"/>
        <path class="cls-1" d="M316.37,343.88c-1.49,0-2.7,1.21-2.7,2.7s1.21,2.7,2.7,2.7,2.7-1.21,2.7-2.7-1.21-2.7-2.7-2.7Z"/>
        <path class="cls-1" d="M299.93,344.42c-.27,0-.49.22-.49.49s.22.49.49.49.49-.22.49-.49-.22-.49-.49-.49Z"/>
        <path class="cls-1" d="M.49,274.14c-.27,0-.49.22-.49.49s.22.49.49.49.49-.22.49-.49-.22-.49-.49-.49Z"/>
        <path class="cls-1" d="M14.75,281.87c-.67,0-1.2.54-1.2,1.2s.54,1.2,1.2,1.2,1.21-.54,1.21-1.2-.54-1.2-1.21-1.2Z"/>
        <path class="cls-1" d="M29.05,289.59c-1.01,0-1.84.82-1.84,1.84s.82,1.84,1.84,1.84,1.84-.82,1.84-1.84-.82-1.84-1.84-1.84Z"/>
        <path class="cls-1" d="M43.41,297.24c-1.36,0-2.47,1.1-2.47,2.47s1.1,2.47,2.47,2.47,2.47-1.1,2.47-2.47-1.1-2.47-2.47-2.47Z"/>
        <circle class="cls-1" cx="57.84" cy="307.87" r="2.96"/>
        <path class="cls-1" d="M72.35,312.42c-1.91,0-3.45,1.55-3.45,3.45s1.55,3.45,3.45,3.45,3.45-1.55,3.45-3.45-1.55-3.45-3.45-3.45Z"/>
        <path class="cls-1" d="M87.04,319.63c-2.18,0-3.95,1.77-3.95,3.95s1.77,3.95,3.95,3.95,3.95-1.77,3.95-3.95-1.77-3.95-3.95-3.95Z"/>
        <path class="cls-1" d="M102.05,326.06c-2.51,0-4.54,2.03-4.54,4.54s2.03,4.54,4.54,4.54,4.54-2.03,4.54-4.54-2.03-4.54-4.54-4.54Z"/>
        <circle class="cls-1" cx="117.44" cy="336.74" r="5.09"/>
        <circle class="cls-1" cx="133.24" cy="341.76" r="4.93"/>
        <path class="cls-1" d="M149.44,341.16c-2.25,0-4.08,1.83-4.08,4.08s1.83,4.08,4.08,4.08,4.08-1.83,4.08-4.08-1.83-4.08-4.08-4.08Z"/>
        <path class="cls-1" d="M165.95,343.88c-1.49,0-2.7,1.21-2.7,2.7s1.21,2.7,2.7,2.7,2.7-1.21,2.7-2.7-1.21-2.7-2.7-2.7Z"/>
        <path class="cls-1" d="M182.39,344.42c-.27,0-.49.22-.49.49s.22.49.49.49.49-.22.49-.49-.22-.49-.49-.49Z"/>
        <path class="cls-1" d="M176.14,85.37c1.03,0,1.87-.84,1.87-1.87s-.84-1.87-1.87-1.87-1.87.84-1.87,1.87.84,1.87,1.87,1.87Z"/>
        <path class="cls-1" d="M183.04,72.67c1.65,0,2.98-1.34,2.98-2.98s-1.34-2.98-2.98-2.98-2.98,1.34-2.98,2.98,1.33,2.98,2.98,2.98Z"/>
        <path class="cls-1" d="M190.49,59.77c2,0,3.62-1.62,3.62-3.62s-1.62-3.62-3.62-3.62-3.62,1.62-3.62,3.62,1.62,3.62,3.62,3.62Z"/>
        <path class="cls-1" d="M198.35,46.68c2.12,0,3.84-1.72,3.84-3.84s-1.72-3.84-3.84-3.84-3.83,1.72-3.83,3.84,1.72,3.84,3.83,3.84Z"/>
        <path class="cls-1" d="M206.55,33.37c2.01,0,3.63-1.63,3.63-3.63s-1.63-3.63-3.63-3.63-3.63,1.63-3.63,3.63,1.63,3.63,3.63,3.63Z"/>
        <path class="cls-1" d="M215.03,19.81c1.65,0,2.99-1.34,2.99-2.99s-1.34-2.99-2.99-2.99-2.99,1.34-2.99,2.99,1.34,2.99,2.99,2.99Z"/>
        <path class="cls-1" d="M223.78,5.96c1.04,0,1.88-.84,1.88-1.88s-.84-1.88-1.88-1.88-1.88.84-1.88,1.88.84,1.88,1.88,1.88Z"/>
        <path class="cls-1" d="M306.18,85.37c1.03,0,1.87-.84,1.87-1.87s-.84-1.87-1.87-1.87-1.87.84-1.87,1.87.84,1.87,1.87,1.87Z"/>
        <path class="cls-1" d="M299.28,72.67c1.65,0,2.98-1.34,2.98-2.98s-1.33-2.98-2.98-2.98-2.98,1.34-2.98,2.98,1.34,2.98,2.98,2.98Z"/>
        <path class="cls-1" d="M291.83,59.77c2,0,3.62-1.62,3.62-3.62s-1.62-3.62-3.62-3.62-3.62,1.62-3.62,3.62,1.62,3.62,3.62,3.62Z"/>
        <path class="cls-1" d="M283.97,46.68c2.12,0,3.83-1.72,3.83-3.84s-1.72-3.84-3.83-3.84-3.84,1.72-3.84,3.84,1.72,3.84,3.84,3.84Z"/>
        <path class="cls-1" d="M275.77,33.37c2.01,0,3.63-1.63,3.63-3.63s-1.63-3.63-3.63-3.63-3.63,1.63-3.63,3.63,1.63,3.63,3.63,3.63Z"/>
        <path class="cls-1" d="M267.28,19.81c1.65,0,2.99-1.34,2.99-2.99s-1.34-2.99-2.99-2.99-2.99,1.34-2.99,2.99,1.34,2.99,2.99,2.99Z"/>
        <path class="cls-1" d="M258.54,5.96c1.04,0,1.88-.84,1.88-1.88s-.84-1.88-1.88-1.88-1.88.84-1.88,1.88.84,1.88,1.88,1.88Z"/>
        <path class="cls-1" d="M462.98,252.11c-10.56-6.14-25.76-14.99-46.82-21.49,6.52-4.4,12.03-10.3,16.57-16.72,15.23-21.54,20.89-47.6,27.52-72.73,0,0,1.23-5.29,1.23-5.29-10.78,4.89-22.57,9.99-34.13,12.01-.83.13-2.51.3-3.36.3-6.89.2-14.06.68-20.73,2.7.96-15.36,1.28-31.01,2.06-45.92.65-20.43.7-43.6,2.33-63.84.05-.41.21-1.63.28-2.01.02-.21.15-.44.03-.35l-.56-.93c-33.48,12.53-65.06,30.83-91.88,54.67-5.46,5.28-10.99,10.62-16.46,16.08C282.23,60.65,242.94,1.34,242.53.73l-.49-.73h-1.76l-.49.73c-.41.61-39.7,59.92-56.56,107.84-5.47-5.46-11-10.8-16.46-16.08-26.83-23.84-58.4-42.14-91.88-54.67l-.56.93c-.12-.09,0,.14.03.35l.11.65s.17,1.36.17,1.36c1.64,20.27,1.71,43.42,2.33,63.84.76,14.87,1.09,30.54,2.06,45.92-6.67-2.02-13.84-2.49-20.72-2.7-.84-.01-2.52-.15-3.35-.3-11.56-2.02-23.35-7.11-34.13-12.01,0,0,1.23,5.29,1.23,5.29,8.61,31.74,15.84,69.28,44.19,89.42-21.1,6.5-36.34,15.36-46.91,21.52-4.58,2.67-8.2,4.78-10.78,5.76l-3.17,1.21,2.91,1.74c.66.39,65.87,39.37,93.06,52.13,28.64,13.44,52.67,20.06,73.01,20.06,4.31,0,8.46-.3,12.45-.89.77-.12,1.55-.25,2.32-.39-.45,3.47-.09,7,.78,10.24,4.57,15.95,18.33,26.57,29.57,37.48,8.27,7.94,14.67,17.39,21.23,26.83l.43-.23.43.23c4.36-6.37,8.78-12.7,13.66-18.56,3.97-5.27,11.15-11.61,15.97-16.2,8.66-8.11,17.77-17.45,21.17-29.55.87-3.24,1.23-6.77.78-10.24.77.14,1.55.27,2.32.39,3.99.59,8.14.89,12.45.89,20.33,0,44.37-6.62,73.01-20.06,27.19-12.76,92.4-51.74,93.06-52.13l2.91-1.74-3.17-1.21c-2.57-.98-6.19-3.09-10.78-5.75ZM424.6,157.47c10.74-1.52,20.25-6.25,29.44-11.5-2.13,14.95-6.6,29.62-12.64,43.41-6.38,15.02-13.96,30.06-26.53,40.84-8.19-2.46-17.24-4.56-27.24-6,7.38-16.5,11.77-34.38,13.79-52.24.35-2.87.65-5.77.91-8.69,6.45-3.69,14.78-5,22.27-5.82ZM334.27,81.48c22.32-16.9,47.12-30.51,72.56-42.17l-.05.29-.16,1.4s-.26,2.78-.26,2.78c-1.93,27.11-4.12,55.9-8.16,82.85-7.94,61.9-23.6,107.91-79.39,142.07-21.84,12.86-46.36,19.98-68.68,32.04-2.5,1.78-4.45,3.38-7.41,4.75-.36-.25-.57-.4-.6-.41l-.19.27c.02-.07.03-.15.04-.26l.25-1.33s.47-2.66.47-2.67c3.74-22.03,6.59-57.05,8.55-79.62.76-6.8,1.24-13.71,2.55-20.35,4.36-19.92,15.05-37.92,25.63-55.57,15.01-23.68,32.4-46.88,54.86-64.07ZM241.16,4.64c7.17,11.05,40.66,63.78,55.35,106.52-23.76,23.97-45.94,50.29-55.35,83.07-9.4-32.78-31.59-59.11-55.35-83.07,14.68-42.74,48.18-95.46,55.35-106.52ZM75.98,43.78c-.09-1.07-.3-3.21-.48-4.47,25.44,11.67,50.23,25.27,72.56,42.17,22.46,17.19,39.85,40.39,54.86,64.07,10.58,17.66,21.26,35.64,25.63,55.57,1.32,6.64,1.79,13.56,2.55,20.35,2.1,22.47,4.71,57.75,8.55,79.62l.47,2.66.25,1.33c.01.11.02.19.04.26l-.19-.27s-.24.17-.6.41c-2.96-1.38-4.92-2.98-7.41-4.75-22.31-12.06-46.84-19.18-68.68-32.04-55.77-34.14-71.46-80.15-79.39-142.07-4.06-26.95-6.23-55.75-8.16-82.85ZM52.31,212.08c-11.86-20.22-20.6-42.79-23.99-66.09,9.18,5.24,18.68,9.96,29.4,11.48,7.49.82,15.81,2.13,22.27,5.82.27,2.92.57,5.82.92,8.69,2.02,17.87,6.4,35.75,13.79,52.24-9.99,1.45-19.05,3.54-27.24,6-6.05-5.18-11.03-11.41-15.15-18.15ZM186.34,328.85c-21.83,3.25-49.95-3.11-83.58-18.89-23.88-11.21-77.43-42.85-90.06-50.37,2.32-1.17,5.08-2.78,8.3-4.65,14.75-8.58,38.7-22.51,75.14-27.61,3.44,7.23,7.46,14.17,12.16,20.69,26.73,37.88,79.02,69.35,126.53,60.35,0,.08,0,.16.01.24-9.38,5.91-29.57,17.42-48.49,20.24ZM216.81,366.15c-6.95-8.72-13.9-17.08-18.25-26.99-1.12-3.06-1.85-6.07-1.82-9.2,15.34-4.27,29.94-12.39,38.27-17.55.31,6.3.69,12.61,1.03,18.91.93,15.16,3.29,53.75,4.4,71.87-2.77-6.24-5.9-12.3-9.35-18.28-3.32-6.1-9.76-13.44-14.28-18.76ZM278.86,348.28c-5.7,8.75-13.8,18.57-20.84,26.77-6.73,8.49-11.72,18.35-16.14,28.2,1.58-26.57,4.07-63.73,5.42-90.84,8.33,5.16,22.94,13.29,38.29,17.56.03,6.66-3.1,12.68-6.73,18.31ZM379.56,309.96c-33.63,15.79-61.75,22.14-83.58,18.89-18.91-2.82-39.11-14.33-48.5-20.24,0-.08,0-.16.01-.24,47.52,9,99.8-22.46,126.54-60.35,4.7-6.52,8.72-13.46,12.16-20.69,36.43,5.1,60.39,19.03,75.14,27.61,3.22,1.87,5.97,3.47,8.3,4.65-12.64,7.51-66.18,39.16-90.06,50.37Z"/>
      </g>
      <g>
        <path class="cls-1" d="M575.01,257.46l-31.8-106.91c-.84-2.75-1.74-4.76-2.7-6.02-.96-1.26-2.64-2.43-5.03-3.5l-2.16-.9v-1.8h47.62v1.8l-3.77,1.44c-2.76,1.08-4.61,2.4-5.57,3.95-.96,1.56-1.02,3.71-.18,6.47l19.59,74.75,21.2-62.71-4.13-12.76c-.84-2.52-1.62-4.43-2.34-5.75-.72-1.32-1.92-2.4-3.59-3.23l-3.95-2.16v-1.8h45.1v1.8l-5.57,2.16c-2.4.84-3.75,2.07-4.04,3.68-.3,1.62-.03,3.68.81,6.2l22.82,76.37,21.56-74.93c.84-2.87,1.14-5.39.9-7.55-.24-2.16-1.74-3.71-4.49-4.67l-3.77-1.26v-1.8h24.98v1.8l-4.67,1.8c-2.4.84-4.07,2.16-5.03,3.95-.96,1.8-1.8,4.01-2.52,6.65l-29.83,104.94h-12.4l-26.95-84.45-27.67,84.45h-12.4Z"/>
        <path class="cls-1" d="M726.84,259.62c-6.95,0-12.79-1.98-17.52-5.93-4.73-3.95-7.1-9.64-7.1-17.07,0-5.63,2.88-10.81,8.62-15.54,5.75-4.73,14.79-8.29,27.13-10.69,1.92-.36,4.07-.75,6.47-1.17,2.4-.42,4.91-.87,7.55-1.35v-14.2c0-8.14-.99-13.86-2.96-17.16-1.98-3.29-5.06-4.94-9.25-4.94-2.88,0-5.15.93-6.83,2.79-1.68,1.86-2.76,5.06-3.23,9.61l-.36,1.98c-.24,5.15-1.5,8.93-3.77,11.32-2.28,2.4-5.09,3.59-8.45,3.59-3.12,0-5.69-.96-7.73-2.88-2.04-1.91-3.05-4.49-3.05-7.73,0-4.91,1.71-9.04,5.12-12.4,3.41-3.35,7.93-5.87,13.57-7.55,5.63-1.68,11.74-2.52,18.33-2.52,10.66,0,18.9,2.61,24.71,7.82,5.81,5.21,8.71,13.69,8.71,25.43v39.71c0,5.39,2.52,8.09,7.55,8.09h3.95l1.62,1.44c-2.28,2.88-4.76,5.09-7.46,6.65s-6.5,2.34-11.41,2.34c-5.27,0-9.43-1.23-12.49-3.68s-5.06-5.72-6.02-9.79c-3.59,3.84-7.28,7.1-11.05,9.79s-8.66,4.04-14.64,4.04ZM737.8,248.66c2.4,0,4.64-.57,6.74-1.71,2.09-1.14,4.58-2.9,7.46-5.3v-30.19c-1.2.24-2.4.48-3.59.72-1.2.24-2.58.48-4.13.72-5.51,1.44-9.91,3.86-13.21,7.28-3.3,3.41-4.94,8-4.94,13.75,0,4.91,1.14,8.6,3.41,11.05,2.27,2.46,5.03,3.68,8.27,3.68Z"/>
        <path class="cls-1" d="M793.32,256.92v-1.8l2.52-.72c4.19-1.2,6.29-4.13,6.29-8.8v-56.24c0-2.63-.42-4.58-1.26-5.84-.84-1.26-2.46-2.12-4.85-2.6l-2.7-.72v-1.8l30.73-10.42,1.8,1.8,1.44,10.78c4.19-3.71,8.92-6.77,14.2-9.16,5.27-2.4,10.48-3.59,15.63-3.59,7.91,0,13.98,2.16,18.24,6.47,4.25,4.31,6.38,10.9,6.38,19.77v51.75c0,4.67,2.27,7.61,6.83,8.8l1.62.54v1.8h-42.41v-1.8l2.34-.72c4.19-1.32,6.29-4.25,6.29-8.8v-57.32c0-7.66-3.83-11.5-11.5-11.5-5.27,0-11.02,2.64-17.25,7.91v61.09c0,4.67,2.09,7.61,6.29,8.8l1.62.54v1.8h-42.23Z"/>
        <path class="cls-1" d="M944.07,167.8c7.79,0,14.43,1.59,19.95,4.76,5.51,3.18,9.73,7.49,12.67,12.94,2.93,5.45,4.4,11.65,4.4,18.6,0,1.32-.06,2.67-.18,4.04-.12,1.38-.36,2.61-.72,3.68h-53.55c.12,12.94,2.43,22.25,6.92,27.94,4.49,5.69,11.17,8.53,20.04,8.53,5.99,0,10.84-.96,14.55-2.88,3.71-1.91,7.19-4.73,10.42-8.44l1.8,1.62c-3.71,6.59-8.66,11.74-14.82,15.45-6.17,3.71-13.57,5.57-22.19,5.57s-16.05-1.83-22.64-5.48c-6.59-3.65-11.74-8.89-15.45-15.72-3.71-6.83-5.57-14.97-5.57-24.44s2.16-18.18,6.47-25.07c4.31-6.89,9.85-12.13,16.62-15.72,6.77-3.59,13.86-5.39,21.29-5.39ZM943.53,171.39c-3.48,0-6.44,1.05-8.89,3.14-2.46,2.1-4.37,5.81-5.75,11.14-1.38,5.33-2.13,12.85-2.25,22.55h30.73c1.2-13.06.72-22.46-1.44-28.21-2.16-5.75-6.29-8.62-12.4-8.62Z"/>
        <path class="cls-1" d="M1021.69,259.62c-5.87,0-11.14-.69-15.81-2.07s-8.98-3.08-12.94-5.12l.18-21.38h1.8l6.11,10.78c2.63,4.79,5.54,8.35,8.71,10.69,3.17,2.34,7.21,3.5,12.13,3.5,5.75,0,10.39-1.29,13.93-3.86,3.53-2.57,5.3-6.02,5.3-10.33,0-3.95-1.26-7.19-3.77-9.7s-7.19-4.79-14.02-6.83l-7.55-2.34c-7.31-2.16-13.06-5.51-17.25-10.06-4.19-4.55-6.29-10.12-6.29-16.71,0-7.91,3.11-14.61,9.34-20.12,6.23-5.51,15.15-8.27,26.77-8.27,4.67,0,9.07.51,13.21,1.53,4.13,1.02,8.11,2.55,11.95,4.58l-1.08,19.41h-1.8l-6.29-11.14c-2.28-3.95-4.52-6.74-6.74-8.36-2.22-1.62-5.54-2.43-9.97-2.43-4.07,0-7.91,1.14-11.5,3.41-3.59,2.28-5.39,5.51-5.39,9.7s1.53,7.31,4.58,9.7c3.05,2.4,7.57,4.61,13.57,6.65l8.09,2.34c8.62,2.64,14.79,6.26,18.51,10.87,3.71,4.61,5.57,10.15,5.57,16.62,0,8.75-3.45,15.75-10.33,21.02-6.89,5.27-16.56,7.91-29.02,7.91Z"/>
        <path class="cls-1" d="M1100.21,259.62c-5.87,0-11.14-.69-15.81-2.07s-8.98-3.08-12.94-5.12l.18-21.38h1.8l6.11,10.78c2.63,4.79,5.54,8.35,8.71,10.69,3.17,2.34,7.21,3.5,12.13,3.5,5.75,0,10.39-1.29,13.93-3.86,3.53-2.57,5.3-6.02,5.3-10.33,0-3.95-1.26-7.19-3.77-9.7s-7.19-4.79-14.02-6.83l-7.55-2.34c-7.31-2.16-13.06-5.51-17.25-10.06-4.19-4.55-6.29-10.12-6.29-16.71,0-7.91,3.11-14.61,9.34-20.12,6.23-5.51,15.15-8.27,26.77-8.27,4.67,0,9.07.51,13.21,1.53,4.13,1.02,8.11,2.55,11.95,4.58l-1.08,19.41h-1.8l-6.29-11.14c-2.28-3.95-4.52-6.74-6.74-8.36-2.22-1.62-5.54-2.43-9.97-2.43-4.07,0-7.91,1.14-11.5,3.41-3.59,2.28-5.39,5.51-5.39,9.7s1.53,7.31,4.58,9.7c3.05,2.4,7.57,4.61,13.57,6.65l8.09,2.34c8.62,2.64,14.79,6.26,18.51,10.87,3.71,4.61,5.57,10.15,5.57,16.62,0,8.75-3.45,15.75-10.33,21.02-6.89,5.27-16.56,7.91-29.02,7.91Z"/>
        <path class="cls-1" d="M1174.24,259.62c-6.95,0-12.79-1.98-17.52-5.93-4.73-3.95-7.1-9.64-7.1-17.07,0-5.63,2.88-10.81,8.62-15.54,5.75-4.73,14.79-8.29,27.13-10.69,1.92-.36,4.07-.75,6.47-1.17,2.4-.42,4.91-.87,7.55-1.35v-14.2c0-8.14-.99-13.86-2.96-17.16-1.98-3.29-5.06-4.94-9.25-4.94-2.88,0-5.15.93-6.83,2.79-1.68,1.86-2.76,5.06-3.23,9.61l-.36,1.98c-.24,5.15-1.5,8.93-3.77,11.32-2.28,2.4-5.09,3.59-8.45,3.59-3.12,0-5.69-.96-7.73-2.88-2.04-1.91-3.05-4.49-3.05-7.73,0-4.91,1.71-9.04,5.12-12.4,3.41-3.35,7.93-5.87,13.57-7.55,5.63-1.68,11.74-2.52,18.33-2.52,10.66,0,18.9,2.61,24.71,7.82,5.81,5.21,8.71,13.69,8.71,25.43v39.71c0,5.39,2.52,8.09,7.55,8.09h3.95l1.62,1.44c-2.28,2.88-4.76,5.09-7.46,6.65s-6.5,2.34-11.41,2.34c-5.27,0-9.43-1.23-12.49-3.68s-5.06-5.72-6.02-9.79c-3.59,3.84-7.28,7.1-11.05,9.79s-8.66,4.04-14.64,4.04ZM1185.2,248.66c2.4,0,4.64-.57,6.74-1.71,2.09-1.14,4.58-2.9,7.46-5.3v-30.19c-1.2.24-2.4.48-3.59.72-1.2.24-2.58.48-4.13.72-5.51,1.44-9.91,3.86-13.21,7.28-3.3,3.41-4.94,8-4.94,13.75,0,4.91,1.14,8.6,3.41,11.05,2.27,2.46,5.03,3.68,8.27,3.68Z"/>
        <path class="cls-1" d="M1282.95,256.92v-1.8l5.93-1.8c2.16-.6,3.71-1.77,4.67-3.5.96-1.73,1.44-3.8,1.44-6.2v-86.43c-1.32-2.88-2.37-5.03-3.14-6.47-.78-1.44-1.65-2.66-2.61-3.68-.96-1.02-2.28-2.31-3.95-3.86l-3.05-3.05v-1.8h31.8l59.66,81.4v-67.74c0-2.4-.39-4.55-1.17-6.47-.78-1.92-2.37-3.17-4.76-3.77l-5.93-1.62v-1.8h25.69v1.8l-4.85,1.62c-2.16.72-3.48,1.98-3.95,3.77-.48,1.8-.72,3.89-.72,6.29v105.65h-10.06l-68.64-94.33v80.5c0,2.4.36,4.43,1.08,6.11.72,1.68,2.21,2.88,4.49,3.59l5.39,1.8v1.8h-27.31Z"/>
        <path class="cls-1" d="M1423.64,259.62c-6.95,0-12.79-1.98-17.52-5.93-4.73-3.95-7.1-9.64-7.1-17.07,0-5.63,2.88-10.81,8.62-15.54,5.75-4.73,14.79-8.29,27.13-10.69,1.92-.36,4.07-.75,6.47-1.17,2.4-.42,4.91-.87,7.55-1.35v-14.2c0-8.14-.99-13.86-2.96-17.16-1.98-3.29-5.06-4.94-9.25-4.94-2.88,0-5.15.93-6.83,2.79-1.68,1.86-2.76,5.06-3.23,9.61l-.36,1.98c-.24,5.15-1.5,8.93-3.77,11.32-2.28,2.4-5.09,3.59-8.45,3.59-3.12,0-5.69-.96-7.73-2.88-2.04-1.91-3.05-4.49-3.05-7.73,0-4.91,1.71-9.04,5.12-12.4,3.41-3.35,7.93-5.87,13.57-7.55,5.63-1.68,11.74-2.52,18.33-2.52,10.66,0,18.9,2.61,24.71,7.82,5.81,5.21,8.71,13.69,8.71,25.43v39.71c0,5.39,2.52,8.09,7.55,8.09h3.95l1.62,1.44c-2.28,2.88-4.76,5.09-7.46,6.65s-6.5,2.34-11.41,2.34c-5.27,0-9.43-1.23-12.49-3.68s-5.06-5.72-6.02-9.79c-3.59,3.84-7.28,7.1-11.05,9.79s-8.66,4.04-14.64,4.04ZM1434.6,248.66c2.4,0,4.64-.57,6.74-1.71,2.09-1.14,4.58-2.9,7.46-5.3v-30.19c-1.2.24-2.4.48-3.59.72-1.2.24-2.58.48-4.13.72-5.51,1.44-9.91,3.86-13.21,7.28-3.3,3.41-4.94,8-4.94,13.75,0,4.91,1.14,8.6,3.41,11.05,2.27,2.46,5.03,3.68,8.27,3.68Z"/>
        <path class="cls-1" d="M1490.12,256.92v-1.8l2.7-.72c2.39-.72,4.04-1.8,4.94-3.23s1.35-3.29,1.35-5.57v-56.24c0-2.63-.45-4.58-1.35-5.84-.9-1.26-2.55-2.12-4.94-2.6l-2.7-.72v-1.8l30.91-10.42,1.8,1.8,1.62,15.45v1.44c1.68-3.35,3.86-6.44,6.56-9.25,2.7-2.81,5.69-5.12,8.98-6.92,3.29-1.8,6.56-2.7,9.79-2.7,4.55,0,8.02,1.26,10.42,3.77,2.39,2.52,3.59,5.69,3.59,9.52,0,4.07-1.17,7.22-3.5,9.43-2.34,2.22-5.12,3.32-8.36,3.32-5.03,0-9.46-2.52-13.3-7.55l-.36-.36c-1.2-1.68-2.58-2.61-4.13-2.79-1.56-.18-3,.57-4.31,2.25-1.2,1.08-2.19,2.37-2.96,3.86-.78,1.5-1.53,3.21-2.25,5.12v50.13c0,4.79,2.09,7.79,6.29,8.98l5.75,1.62v1.8h-46.54Z"/>
        <path class="cls-1" d="M1606.74,259.62c-7.07,0-13.42-1.59-19.05-4.76-5.63-3.17-10.09-8.09-13.39-14.73-3.3-6.65-4.94-15.18-4.94-25.61s1.86-19.25,5.57-26.14c3.71-6.89,8.62-12.04,14.73-15.45,6.11-3.41,12.76-5.12,19.94-5.12,4.19,0,8.2.42,12.04,1.26,3.83.84,7.25,2.1,10.24,3.77v-23.36c0-2.52-.39-4.37-1.17-5.57-.78-1.2-2.43-2.04-4.94-2.52l-3.41-.72v-1.8l32.7-7.91,1.98,1.62-.72,25.16v87.87c0,2.4.42,4.34,1.26,5.84.84,1.5,2.4,2.55,4.67,3.14l1.62.54v1.8l-30.73,1.98-1.62-6.47c-3.23,2.16-6.92,3.89-11.05,5.21s-8.71,1.98-13.75,1.98ZM1617.16,252.97c5.03,0,9.64-1.5,13.84-4.49v-71.33c-4.43-2.88-8.98-4.31-13.66-4.31-5.75,0-10.66,3.32-14.73,9.97-4.07,6.65-6.11,17.1-6.11,31.35s1.92,24.29,5.75,30.1c3.83,5.81,8.8,8.71,14.91,8.71Z"/>
        <path class="cls-1" d="M1715.98,259.62c-9.1,0-17.01-1.89-23.72-5.66-6.71-3.77-11.89-9.13-15.54-16.08-3.66-6.95-5.48-15.09-5.48-24.44s1.95-17.43,5.84-24.26c3.89-6.83,9.22-12.1,15.99-15.81,6.77-3.71,14.4-5.57,22.91-5.57s16.11,1.83,22.82,5.48c6.71,3.66,12.01,8.89,15.9,15.72,3.89,6.83,5.84,14.98,5.84,24.44s-1.83,17.64-5.48,24.53c-3.66,6.89-8.8,12.22-15.45,15.99s-14.53,5.66-23.63,5.66ZM1715.98,256.02c4.19,0,7.55-1.2,10.06-3.59,2.52-2.4,4.34-6.65,5.48-12.76,1.14-6.11,1.71-14.73,1.71-25.88s-.57-19.94-1.71-26.05c-1.14-6.11-2.96-10.36-5.48-12.76-2.52-2.4-5.87-3.59-10.06-3.59s-7.58,1.2-10.15,3.59c-2.58,2.4-4.43,6.65-5.57,12.76-1.14,6.11-1.71,14.8-1.71,26.05s.57,19.77,1.71,25.88c1.14,6.11,2.99,10.36,5.57,12.76,2.58,2.4,5.96,3.59,10.15,3.59Z"/>
      </g>
      <g>
        <path class="cls-1" d="M579.13,337.27c-4.54,4.23-11.35,6.35-20.43,6.35h-16.28v34.4h-8.08v-80.7h24.36c9,0,15.8,2.12,20.38,6.35,4.58,4.23,6.87,9.85,6.87,16.86s-2.27,12.51-6.81,16.74ZM577.63,320.53c0-5.39-1.5-9.47-4.5-12.24-3-2.77-7.81-4.16-14.43-4.16h-16.28v32.56h16.28c12.62,0,18.93-5.39,18.93-16.16Z"/>
        <path class="cls-1" d="M602.97,373.93c-4.58-3.35-7.14-7.91-7.68-13.68h8.31c.38,3.54,2.06,6.41,5.02,8.6,2.96,2.19,6.94,3.29,11.95,3.29,4.39,0,7.83-1.04,10.33-3.12,2.5-2.08,3.75-4.66,3.75-7.74,0-2.15-.69-3.93-2.08-5.31-1.39-1.39-3.14-2.48-5.25-3.29-2.12-.81-4.98-1.67-8.6-2.6-4.7-1.23-8.51-2.46-11.43-3.69-2.93-1.23-5.41-3.06-7.45-5.48-2.04-2.42-3.06-5.67-3.06-9.76,0-3.08.92-5.93,2.77-8.54,1.85-2.62,4.46-4.69,7.85-6.23,3.39-1.54,7.23-2.31,11.54-2.31,6.77,0,12.24,1.71,16.39,5.14,4.16,3.43,6.39,8.14,6.7,14.14h-8.08c-.23-3.69-1.67-6.68-4.33-8.95-2.66-2.27-6.29-3.41-10.91-3.41-4.08,0-7.39.96-9.93,2.89-2.54,1.92-3.81,4.31-3.81,7.16,0,2.46.75,4.48,2.25,6.06,1.5,1.58,3.37,2.81,5.6,3.69,2.23.89,5.23,1.87,9,2.94,4.54,1.23,8.16,2.42,10.85,3.58,2.69,1.15,5,2.85,6.93,5.08,1.92,2.23,2.92,5.2,3,8.89,0,3.39-.92,6.41-2.77,9.06-1.85,2.66-4.43,4.75-7.74,6.29-3.31,1.54-7.12,2.31-11.43,2.31-7.24,0-13.14-1.67-17.72-5.02Z"/>
        <path class="cls-1" d="M657.41,301.36c-1.16-1.15-1.73-2.58-1.73-4.27s.58-3.1,1.73-4.21c1.15-1.12,2.54-1.67,4.16-1.67s3,.56,4.16,1.67c1.15,1.12,1.73,2.52,1.73,4.21s-.58,3.12-1.73,4.27c-1.16,1.15-2.54,1.73-4.16,1.73s-3-.58-4.16-1.73ZM665.6,314.99v63.04h-8.08v-63.04h8.08Z"/>
        <path class="cls-1" d="M683.96,329.36c2.62-4.89,6.23-8.66,10.85-11.31s9.89-3.98,15.82-3.98c7.77,0,14.18,1.92,19.22,5.77,5.04,3.85,8.29,9.08,9.76,15.7h-8.66c-1.08-4.54-3.41-8.1-6.98-10.68-3.58-2.58-8.02-3.87-13.33-3.87-4.23,0-8.04.96-11.43,2.89-3.39,1.92-6.06,4.79-8.02,8.6s-2.94,8.49-2.94,14.03.98,10.24,2.94,14.09c1.96,3.85,4.64,6.74,8.02,8.66,3.39,1.92,7.2,2.89,11.43,2.89,5.31,0,9.76-1.29,13.33-3.87,3.58-2.58,5.91-6.18,6.98-10.79h8.66c-1.46,6.47-4.73,11.66-9.81,15.59s-11.47,5.89-19.17,5.89c-5.93,0-11.2-1.33-15.82-3.98s-8.24-6.43-10.85-11.31c-2.62-4.89-3.92-10.6-3.92-17.14s1.31-12.26,3.92-17.14Z"/>
        <path class="cls-1" d="M767.84,374.97c-4.73-2.66-8.47-6.43-11.2-11.31-2.73-4.89-4.1-10.6-4.1-17.14s1.38-12.26,4.16-17.14c2.77-4.89,6.54-8.66,11.31-11.31,4.77-2.66,10.12-3.98,16.05-3.98s11.29,1.33,16.11,3.98c4.81,2.66,8.58,6.43,11.31,11.31,2.73,4.89,4.1,10.6,4.1,17.14s-1.39,12.16-4.16,17.09c-2.77,4.93-6.58,8.72-11.43,11.37-4.85,2.66-10.24,3.98-16.16,3.98s-11.26-1.33-15.99-3.98ZM795.37,369.08c3.54-1.88,6.41-4.73,8.6-8.54,2.19-3.81,3.29-8.49,3.29-14.03s-1.08-10.22-3.23-14.03c-2.16-3.81-5-6.66-8.54-8.54-3.54-1.89-7.39-2.83-11.55-2.83s-8.01.94-11.54,2.83c-3.54,1.89-6.37,4.73-8.49,8.54-2.12,3.81-3.17,8.49-3.17,14.03s1.06,10.22,3.17,14.03c2.12,3.81,4.92,6.66,8.43,8.54,3.5,1.89,7.33,2.83,11.49,2.83s8-.94,11.55-2.83ZM794.91,295.82l-23.67,13.74v-6.23l23.67-14.78v7.27Z"/>
        <path class="cls-1" d="M836.15,292.59v85.43h-8.08v-85.43h8.08Z"/>
        <path class="cls-1" d="M868.42,374.97c-4.73-2.66-8.47-6.43-11.2-11.31-2.73-4.89-4.1-10.6-4.1-17.14s1.38-12.26,4.16-17.14c2.77-4.89,6.54-8.66,11.31-11.31,4.77-2.66,10.12-3.98,16.05-3.98s11.29,1.33,16.11,3.98c4.81,2.66,8.58,6.43,11.31,11.31,2.73,4.89,4.1,10.6,4.1,17.14s-1.39,12.16-4.16,17.09c-2.77,4.93-6.58,8.72-11.43,11.37-4.85,2.66-10.24,3.98-16.16,3.98s-11.26-1.33-15.99-3.98ZM895.95,369.08c3.54-1.88,6.41-4.73,8.6-8.54,2.19-3.81,3.29-8.49,3.29-14.03s-1.08-10.22-3.23-14.03c-2.16-3.81-5-6.66-8.54-8.54-3.54-1.89-7.39-2.83-11.55-2.83s-8.01.94-11.54,2.83c-3.54,1.89-6.37,4.73-8.49,8.54-2.12,3.81-3.17,8.49-3.17,14.03s1.06,10.22,3.17,14.03c2.12,3.81,4.92,6.66,8.43,8.54,3.5,1.89,7.33,2.83,11.49,2.83s8-.94,11.55-2.83Z"/>
        <path class="cls-1" d="M970.63,318.22c4.39,2.77,7.54,6.27,9.47,10.51v-13.74h8.08v64.65c0,5.77-1.25,10.89-3.75,15.36-2.5,4.46-5.99,7.91-10.45,10.33-4.46,2.42-9.54,3.64-15.24,3.64-8.08,0-14.8-1.92-20.15-5.77-5.35-3.85-8.68-9.08-9.99-15.7h7.97c1.39,4.39,4.02,7.89,7.91,10.51,3.89,2.62,8.64,3.93,14.26,3.93,4.08,0,7.74-.87,10.97-2.6,3.23-1.73,5.77-4.29,7.62-7.68,1.85-3.39,2.77-7.39,2.77-12.01v-15.59c-2,4.31-5.18,7.87-9.52,10.68-4.35,2.81-9.49,4.21-15.41,4.21s-10.95-1.35-15.53-4.04c-4.58-2.69-8.16-6.5-10.74-11.43-2.58-4.92-3.87-10.62-3.87-17.09s1.29-12.14,3.87-17.03c2.58-4.89,6.16-8.66,10.74-11.31,4.58-2.66,9.76-3.98,15.53-3.98s11.08,1.39,15.47,4.16ZM976.97,333.11c-2.08-3.85-4.91-6.81-8.49-8.89s-7.52-3.12-11.83-3.12-8.47,1-12.01,3c-3.54,2-6.33,4.91-8.37,8.72-2.04,3.81-3.06,8.33-3.06,13.57s1.02,9.68,3.06,13.57c2.04,3.89,4.83,6.85,8.37,8.89,3.54,2.04,7.54,3.06,12.01,3.06s8.25-1.04,11.83-3.12,6.41-5.04,8.49-8.89c2.08-3.85,3.12-8.31,3.12-13.39s-1.04-9.54-3.12-13.39Z"/>
        <path class="cls-1" d="M1006.82,329.36c2.58-4.89,6.16-8.66,10.74-11.31,4.58-2.66,9.76-3.98,15.53-3.98s11.18,1.39,15.53,4.16c4.35,2.77,7.48,6.31,9.41,10.62v-13.85h8.08v63.04h-8.08v-13.97c-2,4.31-5.18,7.87-9.52,10.68-4.35,2.81-9.53,4.21-15.53,4.21s-10.83-1.35-15.41-4.04c-4.58-2.69-8.16-6.5-10.74-11.43-2.58-4.92-3.87-10.62-3.87-17.09s1.29-12.14,3.87-17.03ZM1054.9,333.11c-2.08-3.85-4.91-6.81-8.49-8.89s-7.52-3.12-11.83-3.12-8.47,1-12.01,3c-3.54,2-6.33,4.91-8.37,8.72-2.04,3.81-3.06,8.33-3.06,13.57s1.02,9.68,3.06,13.57c2.04,3.89,4.83,6.85,8.37,8.89,3.54,2.04,7.54,3.06,12.01,3.06s8.25-1.04,11.83-3.12,6.41-5.04,8.49-8.89c2.08-3.85,3.12-8.31,3.12-13.39s-1.04-9.54-3.12-13.39Z"/>
      </g>
    </g>
  </g>
</svg>